<svg width="21" height="20" viewBox="0 0 21 20" fill="none" xmlns="http://www.w3.org/2000/svg">
<path d="M13.4499 9.40796L8.73328 4.69962C8.65581 4.62152 8.56364 4.55952 8.46209 4.51721C8.36054 4.47491 8.25162 4.45312 8.14161 4.45312C8.0316 4.45312 7.92268 4.47491 7.82113 4.51721C7.71958 4.55952 7.62741 4.62152 7.54994 4.69962C7.39474 4.85576 7.30762 5.06697 7.30762 5.28712C7.30762 5.50728 7.39474 5.71849 7.54994 5.87462L11.6749 10.0413L7.54994 14.1663C7.39474 14.3224 7.30762 14.5336 7.30762 14.7538C7.30762 14.9739 7.39474 15.1852 7.54994 15.3413C7.62712 15.42 7.71916 15.4827 7.82072 15.5256C7.92229 15.5685 8.03136 15.5908 8.14161 15.5913C8.25187 15.5908 8.36094 15.5685 8.4625 15.5256C8.56406 15.4827 8.6561 15.42 8.73328 15.3413L13.4499 10.633C13.5345 10.5549 13.602 10.4602 13.6482 10.3548C13.6944 10.2494 13.7182 10.1355 13.7182 10.0205C13.7182 9.90537 13.6944 9.79153 13.6482 9.68612C13.602 9.5807 13.5345 9.48599 13.4499 9.40796Z" fill="#FF7506"/>
</svg>
