<svg width="60" height="60" viewBox="0 0 60 60" fill="none" xmlns="http://www.w3.org/2000/svg">
<path d="M60 30C60 46.5685 46.5685 60 30 60C13.4315 60 0 46.5685 0 30C0 13.4315 13.4315 0 30 0C46.5685 0 60 13.4315 60 30ZM2.50418 30C2.50418 45.1855 14.8145 57.4958 30 57.4958C45.1855 57.4958 57.4958 45.1855 57.4958 30C57.4958 14.8145 45.1855 2.50418 30 2.50418C14.8145 2.50418 2.50418 14.8145 2.50418 30Z" fill="#EAEAEC"/>
<path d="M55 30C55 43.8071 43.8071 55 30 55C16.1929 55 5 43.8071 5 30C5 16.1929 16.1929 5 30 5C43.8071 5 55 16.1929 55 30ZM7.51045 30C7.51045 42.4206 17.5794 52.4895 30 52.4895C42.4206 52.4895 52.4895 42.4206 52.4895 30C52.4895 17.5794 42.4206 7.51045 30 7.51045C17.5794 7.51045 7.51045 17.5794 7.51045 30Z" fill="#EAEAEC"/>
<path d="M30 6.25C30 5.55964 30.5601 4.99674 31.2496 5.03124C35.6721 5.25251 39.9574 6.64486 43.6653 9.06537C44.2434 9.44273 44.3657 10.2273 43.9599 10.7859V10.7859C43.5541 11.3444 42.7741 11.465 42.194 11.0908C38.916 8.97686 35.1439 7.75125 31.2494 7.53471C30.5601 7.49638 30 6.94036 30 6.25V6.25Z" fill="#7E7D88"/>
<path d="M30 1.25209C30 0.56058 30.5609 -0.00272785 31.2518 0.0261116C37.9469 0.305574 44.3698 2.82033 49.4834 7.18782C54.9151 11.8269 58.5132 18.2518 59.6307 25.307C60.7481 32.3621 59.3115 39.5845 55.5792 45.675C51.8469 51.7654 46.064 56.3244 39.2705 58.5317C32.477 60.739 25.1188 60.4499 18.5195 57.7164C11.9201 54.9828 6.5127 49.9843 3.2698 43.6197C0.0269051 37.2552 -0.83862 29.9424 0.828905 22.9966C2.39881 16.4575 6.11688 10.6478 11.3691 6.48641C11.9111 6.05697 12.696 6.183 13.1024 6.74245V6.74245C13.5089 7.30189 13.3828 8.0827 12.8425 8.51419C8.07188 12.3236 4.6946 17.6219 3.26389 23.5812C1.73556 29.9472 2.52884 36.6496 5.50104 42.4828C8.47324 48.3161 13.4293 52.8975 19.4778 55.4028C25.5263 57.9082 32.2703 58.1732 38.4967 56.1501C44.7231 54.127 50.0233 49.9486 53.444 44.3665C56.8648 38.7844 58.1815 32.1649 57.1573 25.6987C56.1331 19.2325 52.8354 13.3438 47.8571 9.09202C43.1969 5.11179 37.3503 2.81045 31.2517 2.53267C30.5609 2.5012 30 1.9436 30 1.25209V1.25209Z" fill="#FF7506"/>
<path d="M18.878 25.004C20.1287 25.004 21.09 25.4287 21.762 26.278C22.4433 27.118 22.784 28.322 22.784 29.89C22.784 30.9633 22.6253 31.8967 22.308 32.69C21.9907 33.474 21.5333 34.076 20.936 34.496C20.348 34.916 19.6527 35.126 18.85 35.126C18.318 35.126 17.7813 35.0327 17.24 34.846C16.708 34.65 16.2553 34.3887 15.882 34.062C15.7607 33.9593 15.672 33.8613 15.616 33.768C15.5693 33.6653 15.546 33.544 15.546 33.404C15.546 33.1987 15.602 33.026 15.714 32.886C15.8353 32.7367 15.9753 32.662 16.134 32.662C16.2273 32.662 16.316 32.6807 16.4 32.718C16.484 32.746 16.5867 32.7973 16.708 32.872C17.4827 33.4133 18.1733 33.684 18.78 33.684C19.4613 33.684 19.998 33.3713 20.39 32.746C20.782 32.1113 20.9873 31.2247 21.006 30.086C20.7913 30.506 20.4693 30.842 20.04 31.094C19.6107 31.3367 19.13 31.458 18.598 31.458C18.01 31.458 17.4873 31.3273 17.03 31.066C16.5727 30.7953 16.2133 30.422 15.952 29.946C15.7 29.4607 15.574 28.91 15.574 28.294C15.574 27.6593 15.714 27.0947 15.994 26.6C16.2833 26.096 16.6753 25.704 17.17 25.424C17.674 25.144 18.2433 25.004 18.878 25.004ZM18.976 30.03C19.4987 30.03 19.9187 29.8667 20.236 29.54C20.5627 29.204 20.726 28.77 20.726 28.238C20.726 27.6967 20.5627 27.2627 20.236 26.936C19.9187 26.6 19.4987 26.432 18.976 26.432C18.4627 26.432 18.052 26.6 17.744 26.936C17.436 27.2627 17.282 27.6967 17.282 28.238C17.282 28.7793 17.436 29.2133 17.744 29.54C18.052 29.8667 18.4627 30.03 18.976 30.03ZM27.5945 35.126C26.4279 35.126 25.5365 34.6967 24.9205 33.838C24.3045 32.97 23.9965 31.71 23.9965 30.058C23.9965 28.4153 24.3045 27.1647 24.9205 26.306C25.5365 25.438 26.4279 25.004 27.5945 25.004C28.7612 25.004 29.6525 25.438 30.2685 26.306C30.8845 27.1647 31.1925 28.4153 31.1925 30.058C31.1925 31.7007 30.8845 32.956 30.2685 33.824C29.6525 34.692 28.7612 35.126 27.5945 35.126ZM27.5945 33.712C28.2292 33.712 28.6912 33.4227 28.9805 32.844C29.2699 32.256 29.4145 31.3273 29.4145 30.058C29.4145 28.7793 29.2699 27.8553 28.9805 27.286C28.6912 26.7073 28.2292 26.418 27.5945 26.418C26.9599 26.418 26.4979 26.7073 26.2085 27.286C25.9192 27.8647 25.7745 28.7887 25.7745 30.058C25.7745 31.3273 25.9192 32.256 26.2085 32.844C26.4979 33.4227 26.9599 33.712 27.5945 33.712ZM36.4371 34.804C36.3531 34.9533 36.2504 35.0653 36.1291 35.14C36.0077 35.2147 35.8864 35.252 35.7651 35.252C35.5971 35.252 35.4477 35.1913 35.3171 35.07C35.1957 34.9487 35.1351 34.7947 35.1351 34.608C35.1351 34.4493 35.1817 34.2907 35.2751 34.132L40.3711 25.326C40.4551 25.1767 40.5577 25.0647 40.6791 24.99C40.8004 24.9153 40.9217 24.878 41.0431 24.878C41.2111 24.878 41.3557 24.9387 41.4771 25.06C41.6077 25.1813 41.6731 25.3353 41.6731 25.522C41.6731 25.6807 41.6264 25.8393 41.5331 25.998L36.4371 34.804ZM34.8831 31.024C34.0991 31.024 33.4877 30.7673 33.0491 30.254C32.6104 29.7407 32.3911 28.9893 32.3911 28C32.3911 27.02 32.6104 26.2733 33.0491 25.76C33.4877 25.2467 34.0991 24.99 34.8831 24.99C35.6671 24.99 36.2784 25.2467 36.7171 25.76C37.1651 26.2733 37.3891 27.02 37.3891 28C37.3891 28.9893 37.1651 29.7407 36.7171 30.254C36.2784 30.7673 35.6671 31.024 34.8831 31.024ZM34.8831 29.89C35.2377 29.89 35.4944 29.7453 35.6531 29.456C35.8211 29.1573 35.9051 28.672 35.9051 28C35.9051 27.3467 35.8211 26.8707 35.6531 26.572C35.4851 26.2733 35.2284 26.124 34.8831 26.124C34.5377 26.124 34.2811 26.2733 34.1131 26.572C33.9544 26.8613 33.8751 27.3373 33.8751 28C33.8751 28.672 33.9544 29.1573 34.1131 29.456C34.2811 29.7453 34.5377 29.89 34.8831 29.89ZM41.9251 35.098C41.1411 35.098 40.5297 34.8413 40.0911 34.328C39.6524 33.8147 39.4331 33.0587 39.4331 32.06C39.4331 31.08 39.6524 30.338 40.0911 29.834C40.5391 29.3207 41.1504 29.064 41.9251 29.064C42.7091 29.064 43.3204 29.3207 43.7591 29.834C44.1977 30.3473 44.4171 31.094 44.4171 32.074C44.4171 33.0633 44.1977 33.8147 43.7591 34.328C43.3204 34.8413 42.7091 35.098 41.9251 35.098ZM41.9251 33.964C42.2704 33.964 42.5271 33.8193 42.6951 33.53C42.8631 33.2313 42.9471 32.746 42.9471 32.074C42.9471 31.4207 42.8631 30.9447 42.6951 30.646C42.5271 30.3473 42.2704 30.198 41.9251 30.198C41.5797 30.198 41.3231 30.3473 41.1551 30.646C40.9871 30.9447 40.9031 31.4207 40.9031 32.074C40.9031 32.746 40.9871 33.2313 41.1551 33.53C41.3231 33.8193 41.5797 33.964 41.9251 33.964Z" fill="#535261"/>
</svg>
