<svg width="697" height="223" viewBox="0 0 697 223" fill="none" xmlns="http://www.w3.org/2000/svg">
<path d="M10.4834 77.7484L1.38354 89V222.559H698V35.4772C679.801 43.9027 674.77 45.3881 656.571 38.9766C638.371 32.5651 620.172 14.6154 601.972 6.34663C583.772 -1.92214 565.573 -0.510014 547.373 9.95872C529.173 20.4275 510.974 39.9528 492.774 41.4875C474.574 43.0222 456.375 26.5662 438.175 20.1846C419.975 13.803 401.776 17.4958 383.576 28.2488C365.376 39.0019 347.177 56.8153 328.977 57.5054C310.778 58.1955 292.578 41.7625 274.378 42.3334C256.179 42.9043 237.979 60.4792 219.779 58.8428C201.58 57.2064 183.38 36.3587 165.18 23.7055C146.981 11.0524 128.781 6.59385 110.581 7.59042C92.3818 8.58698 74.1821 15.0387 55.9825 29.5161C37.7828 43.9936 19.5832 66.4968 10.4834 77.7484Z" fill="url(#paint0_linear_209_14085)"/>
<path d="M1.3667 89L10.4454 77.7484C19.5241 66.4968 37.6815 43.9936 55.8389 29.5161C73.9963 15.0387 92.1538 8.58698 110.311 7.59042C128.469 6.59385 146.626 11.0524 164.783 23.7055C182.941 36.3587 201.098 57.2064 219.256 58.8428C237.413 60.4792 255.57 42.9043 273.728 42.3334C291.885 41.7625 310.043 58.1955 328.2 57.5054C346.357 56.8153 364.515 39.0019 382.672 28.2488C400.83 17.4958 418.987 13.803 437.145 20.1846C455.302 26.5662 473.459 43.0222 491.617 41.4875C509.774 39.9528 527.932 20.4275 546.089 9.95872C564.246 -0.510013 582.404 -1.92214 600.561 6.34663C618.719 14.6154 636.876 32.5651 655.033 38.9766C673.191 45.3881 678.209 43.9027 696.367 35.4772" stroke="#5185F7" stroke-width="2" stroke-linecap="round"/>
<defs>
<linearGradient id="paint0_linear_209_14085" x1="349.692" y1="1" x2="349.692" y2="222.559" gradientUnits="userSpaceOnUse">
<stop stop-color="#CEDDFF"/>
<stop offset="1" stop-color="#CEDDFF" stop-opacity="0"/>
</linearGradient>
</defs>
</svg>
