<svg width="20" height="20" viewBox="0 0 20 20" fill="none" xmlns="http://www.w3.org/2000/svg">
<path d="M15.8333 9.16671H10.8333V4.16671C10.8333 3.94569 10.7455 3.73373 10.5893 3.57745C10.433 3.42117 10.221 3.33337 10 3.33337C9.77899 3.33337 9.56702 3.42117 9.41074 3.57745C9.25446 3.73373 9.16667 3.94569 9.16667 4.16671V9.16671H4.16667C3.94565 9.16671 3.73369 9.2545 3.57741 9.41078C3.42113 9.56706 3.33333 9.77903 3.33333 10C3.33333 10.2211 3.42113 10.433 3.57741 10.5893C3.73369 10.7456 3.94565 10.8334 4.16667 10.8334H9.16667V15.8334C9.16667 16.0544 9.25446 16.2663 9.41074 16.4226C9.56702 16.5789 9.77899 16.6667 10 16.6667C10.221 16.6667 10.433 16.5789 10.5893 16.4226C10.7455 16.2663 10.8333 16.0544 10.8333 15.8334V10.8334H15.8333C16.0543 10.8334 16.2663 10.7456 16.4226 10.5893C16.5789 10.433 16.6667 10.2211 16.6667 10C16.6667 9.77903 16.5789 9.56706 16.4226 9.41078C16.2663 9.2545 16.0543 9.16671 15.8333 9.16671Z" fill="white"/>
</svg>
