<svg width="18" height="20" viewBox="0 0 18 20" fill="currentColor" xmlns="http://www.w3.org/2000/svg">
<g clip-path="url(#clip0_33_7213)">
<mask id="path-1-outside-1_33_7213" maskUnits="userSpaceOnUse" x="-1" y="-1" width="20" height="22" fill="black">
<rect fill="white" x="-1" y="-1" width="20" height="22"/>
<path d="M5.29761 0.968221C5.29761 1.06326 5.29761 1.14048 5.29761 1.22364C5.29761 1.9008 5.30422 2.57202 5.29761 3.24918C5.29101 4.16394 4.61064 4.76388 3.59339 4.76388C2.77431 4.76388 1.96183 4.76388 1.14275 4.76388C1.12954 4.76388 1.10972 4.76982 1.05688 4.7817C1.05688 4.85298 1.05688 4.9302 1.05688 5.00742C1.05688 9.47431 1.05688 13.9471 1.05688 18.414C1.05688 18.8833 1.22202 19.0318 1.73064 19.0318C6.57908 19.0318 11.4209 19.0318 16.2694 19.0318C16.7648 19.0318 16.9365 18.8714 16.9365 18.4259C16.9365 17.5349 16.9365 16.6439 16.9365 15.7529C16.9365 15.4618 17.1017 15.2718 17.3659 15.2302C17.6829 15.1827 17.9802 15.3727 17.9868 15.6638C18 16.6736 18.0198 17.6834 17.9802 18.6932C17.9472 19.4298 17.2272 19.9762 16.3684 19.9822C15.4833 19.9881 14.6048 19.9822 13.7196 19.9822C9.7167 19.9822 5.71376 19.9822 1.70422 19.9822C0.85211 19.9822 0.211376 19.5486 0.039633 18.8476C0.00660551 18.717 0.00660551 18.5803 0.00660551 18.4497C0.00660551 13.7749 0.00660551 9.09415 0 4.41936C0 4.17582 0.0858716 3.99762 0.270826 3.8313C1.61174 2.64924 2.93945 1.44936 4.26716 0.24948C4.45211 0.0772201 4.65028 0 4.9211 0C8.71266 0.00594001 12.4976 0.00594001 16.2892 0.00594001C17.3262 0.00594001 17.9934 0.605881 17.9934 1.53846C17.9934 2.13246 17.9934 15.0223 17.9934 15.6163C17.9934 15.8598 17.8547 16.0261 17.6235 16.0915C17.3923 16.1568 17.1809 16.1034 17.0554 15.9252C16.9828 15.8182 16.9497 15.6757 16.9431 15.5509C16.9299 14.9866 16.9365 2.12652 16.9365 1.56222C16.9365 1.12266 16.7516 0.956341 16.2561 0.956341C12.6826 0.956341 9.10899 0.956341 5.52881 0.956341C5.46936 0.950401 5.3967 0.962281 5.29761 0.968221ZM1.89578 3.79566C1.89578 3.79566 1.90899 3.80754 1.9222 3.80754C2.39119 3.80754 2.86018 3.81348 3.32917 3.81348C4.14165 3.81348 4.22752 3.73626 4.22752 3.01752C4.22752 2.57796 4.22752 2.1384 4.22752 1.69884C3.44147 2.4057 2.66862 3.10068 1.89578 3.79566Z"/>
</mask>
<path d="M5.29761 0.968221C5.29761 1.06326 5.29761 1.14048 5.29761 1.22364C5.29761 1.9008 5.30422 2.57202 5.29761 3.24918C5.29101 4.16394 4.61064 4.76388 3.59339 4.76388C2.77431 4.76388 1.96183 4.76388 1.14275 4.76388C1.12954 4.76388 1.10972 4.76982 1.05688 4.7817C1.05688 4.85298 1.05688 4.9302 1.05688 5.00742C1.05688 9.47431 1.05688 13.9471 1.05688 18.414C1.05688 18.8833 1.22202 19.0318 1.73064 19.0318C6.57908 19.0318 11.4209 19.0318 16.2694 19.0318C16.7648 19.0318 16.9365 18.8714 16.9365 18.4259C16.9365 17.5349 16.9365 16.6439 16.9365 15.7529C16.9365 15.4618 17.1017 15.2718 17.3659 15.2302C17.6829 15.1827 17.9802 15.3727 17.9868 15.6638C18 16.6736 18.0198 17.6834 17.9802 18.6932C17.9472 19.4298 17.2272 19.9762 16.3684 19.9822C15.4833 19.9881 14.6048 19.9822 13.7196 19.9822C9.7167 19.9822 5.71376 19.9822 1.70422 19.9822C0.85211 19.9822 0.211376 19.5486 0.039633 18.8476C0.00660551 18.717 0.00660551 18.5803 0.00660551 18.4497C0.00660551 13.7749 0.00660551 9.09415 0 4.41936C0 4.17582 0.0858716 3.99762 0.270826 3.8313C1.61174 2.64924 2.93945 1.44936 4.26716 0.24948C4.45211 0.0772201 4.65028 0 4.9211 0C8.71266 0.00594001 12.4976 0.00594001 16.2892 0.00594001C17.3262 0.00594001 17.9934 0.605881 17.9934 1.53846C17.9934 2.13246 17.9934 15.0223 17.9934 15.6163C17.9934 15.8598 17.8547 16.0261 17.6235 16.0915C17.3923 16.1568 17.1809 16.1034 17.0554 15.9252C16.9828 15.8182 16.9497 15.6757 16.9431 15.5509C16.9299 14.9866 16.9365 2.12652 16.9365 1.56222C16.9365 1.12266 16.7516 0.956341 16.2561 0.956341C12.6826 0.956341 9.10899 0.956341 5.52881 0.956341C5.46936 0.950401 5.3967 0.962281 5.29761 0.968221ZM1.89578 3.79566C1.89578 3.79566 1.90899 3.80754 1.9222 3.80754C2.39119 3.80754 2.86018 3.81348 3.32917 3.81348C4.14165 3.81348 4.22752 3.73626 4.22752 3.01752C4.22752 2.57796 4.22752 2.1384 4.22752 1.69884C3.44147 2.4057 2.66862 3.10068 1.89578 3.79566Z" />
<path d="M7.92005 11.6063C7.74171 11.7785 7.58978 11.9389 7.41804 12.0874C6.67161 12.7586 5.92519 13.4358 5.17877 14.1011C4.87492 14.3743 4.47859 14.3327 4.28703 14.0179C4.16152 13.816 4.20776 13.6318 4.43895 13.418C4.99382 12.919 5.54868 12.4201 6.10354 11.9211C6.56593 11.5053 7.02171 11.0895 7.48409 10.6796C7.79455 10.4005 8.07198 10.4005 8.38244 10.6737C8.9307 11.1667 9.47895 11.6597 10.0074 12.1349C10.9784 11.2618 11.9428 10.3945 12.9072 9.52134C12.6826 9.52134 12.425 9.52728 12.1674 9.52134C11.8966 9.50946 11.6984 9.36096 11.6522 9.14712C11.6059 8.93328 11.6984 8.72538 11.9032 8.63628C12.0023 8.5947 12.1212 8.565 12.2334 8.565C12.894 8.55906 13.5546 8.55906 14.2151 8.565C14.618 8.57094 14.8162 8.76102 14.8162 9.12336C14.8162 9.71142 14.8162 10.2935 14.8162 10.8816C14.8162 11.2142 14.5982 11.434 14.2812 11.434C13.9773 11.434 13.7659 11.2202 13.7593 10.8935C13.7527 10.6915 13.7527 10.4955 13.7527 10.2935C13.7527 10.2817 13.7395 10.2698 13.6602 10.1629C13.6074 10.2579 13.581 10.347 13.5215 10.4005C12.5307 11.2974 11.5399 12.1884 10.549 13.0794C10.1791 13.412 9.94134 13.412 9.56483 13.0794C9.02978 12.5983 8.49473 12.1171 7.92005 11.6063Z" />
<path d="M13.7659 14.5004C13.7659 13.8055 13.7593 13.1045 13.7659 12.4096C13.7725 12.0116 14.1688 11.7799 14.5255 11.9522C14.7171 12.0413 14.8162 12.1898 14.8162 12.3858C14.8162 13.8114 14.8228 15.237 14.8162 16.6626C14.8162 16.9477 14.5718 17.1497 14.2811 17.1437C13.9971 17.1378 13.7725 16.9418 13.7725 16.6685C13.7593 15.9439 13.7659 15.2251 13.7659 14.5004Z" />
<path d="M7.4048 14.9033C7.4048 14.3152 7.39819 13.7331 7.4048 13.145C7.4048 12.8302 7.60296 12.6282 7.90021 12.6104C8.21727 12.5926 8.45507 12.8064 8.46168 13.1331C8.46828 13.5133 8.46168 13.8875 8.46168 14.2677C8.46168 15.0458 8.46168 15.824 8.46168 16.6021C8.46168 16.9288 8.28333 17.1308 7.98608 17.1545C7.6492 17.1842 7.4048 16.9763 7.39819 16.6377C7.4048 16.0616 7.4048 15.4854 7.4048 14.9033Z" />
<path d="M12.6958 15.0159C12.6958 15.5445 12.6958 16.0672 12.6958 16.5959C12.6958 16.9226 12.491 17.1305 12.1806 17.1364C11.8635 17.1424 11.6455 16.9226 11.6455 16.59C11.6455 15.5208 11.6455 14.4516 11.6455 13.3883C11.6455 13.0616 11.8503 12.8537 12.1607 12.8478C12.4778 12.8418 12.6958 13.0616 12.6958 13.3943C12.7024 13.9348 12.6958 14.4753 12.6958 15.0159Z" />
<path d="M10.582 15.4798C10.582 15.8422 10.582 16.2045 10.582 16.5728C10.5754 16.9292 10.364 17.149 10.047 17.143C9.72991 17.1371 9.52515 16.9173 9.52515 16.5787C9.52515 15.8362 9.52515 15.0937 9.52515 14.3512C9.52515 14.0245 9.72991 13.8166 10.0404 13.8107C10.3706 13.8047 10.5754 14.0008 10.582 14.3453C10.5886 14.7195 10.582 15.0997 10.582 15.4798Z"/>
<path d="M5.29761 15.8185C5.29761 15.5512 5.29101 15.2839 5.29761 15.0166C5.30422 14.7077 5.5222 14.5176 5.83266 14.5236C6.12991 14.5295 6.34789 14.7255 6.34789 15.0166C6.35449 15.5571 6.35449 16.0977 6.34789 16.6382C6.34128 16.9352 6.11009 17.1431 5.81284 17.1372C5.5222 17.1312 5.31082 16.9293 5.29761 16.6382C5.29761 16.6263 5.29761 16.6085 5.29761 16.5966C5.29761 16.3353 5.29761 16.0798 5.29761 15.8185Z"/>
<path d="M4.22757 16.43C4.22757 16.5251 4.23418 16.626 4.22757 16.7211C4.20115 16.9587 3.96335 17.1428 3.70574 17.1369C3.44812 17.1309 3.21693 16.9587 3.19711 16.733C3.1773 16.5251 3.1773 15.8776 3.19711 15.6697C3.21693 15.4321 3.46794 15.2598 3.73216 15.2658C3.99638 15.2717 4.20776 15.444 4.23418 15.6816C4.23418 15.7826 4.22757 16.329 4.22757 16.43Z"/>
</g>
<defs>
<clipPath id="clip0_33_7213">
<rect width="18" height="20" fill="white"/>
</clipPath>
</defs>
</svg>
