<svg width="13" height="13" viewBox="0 0 13 13" fill="none" xmlns="http://www.w3.org/2000/svg">
<path fill-rule="evenodd" clip-rule="evenodd" d="M6.80099 9.52148C6.70154 9.52148 6.60615 9.48198 6.53583 9.41165C6.4655 9.34132 6.42599 9.24594 6.42599 9.14648L6.42599 4.80173L4.81649 6.41198C4.78163 6.44685 4.74024 6.47451 4.69468 6.49338C4.64913 6.51225 4.6003 6.52196 4.55099 6.52196C4.50169 6.52196 4.45286 6.51225 4.40731 6.49338C4.36175 6.47451 4.32036 6.44685 4.28549 6.41198C4.25063 6.37712 4.22297 6.33573 4.2041 6.29017C4.18523 6.24462 4.17552 6.19579 4.17552 6.14648C4.17552 6.09718 4.18523 6.04835 4.2041 6.0028C4.22297 5.95724 4.25063 5.91585 4.28549 5.88098L6.53549 3.63098C6.57033 3.59606 6.61171 3.56835 6.65727 3.54945C6.70283 3.53054 6.75167 3.52081 6.80099 3.52081C6.85032 3.52081 6.89916 3.53055 6.94472 3.54945C6.99028 3.56835 7.03166 3.59606 7.06649 3.63098L9.31649 5.88098C9.35136 5.91585 9.37902 5.95724 9.39789 6.0028C9.41676 6.04835 9.42647 6.09718 9.42647 6.14648C9.42647 6.19579 9.41676 6.24462 9.39789 6.29017C9.37902 6.33573 9.35136 6.37712 9.31649 6.41198C9.24608 6.4824 9.15058 6.52196 9.05099 6.52196C9.00169 6.52196 8.95286 6.51225 8.90731 6.49338C8.86175 6.47451 8.82036 6.44685 8.78549 6.41198L7.17599 4.80173L7.17599 9.14648C7.17599 9.24594 7.13649 9.34132 7.06616 9.41165C6.99583 9.48198 6.90045 9.52148 6.80099 9.52148Z" fill="#FF9138"/>
</svg>
