<svg width="19" height="24" viewBox="0 0 19 24" fill="none" xmlns="http://www.w3.org/2000/svg">
  <path d="M9.26002 6.15C9.28194 6.10502 9.31607 6.06711 9.35851 6.04058C9.40094 6.01406 9.44997 6 9.50001 6C9.55006 6 9.59909 6.01406 9.64152 6.04058C9.68396 6.06711 9.71809 6.10502 9.74001 6.15L10.691 8.0775C10.7101 8.11649 10.7383 8.15025 10.7733 8.17587C10.8084 8.20148 10.8491 8.21817 10.892 8.2245L13.022 8.5335C13.2395 8.565 13.328 8.8335 13.169 8.988L11.63 10.4895C11.599 10.5198 11.5758 10.5572 11.5624 10.5985C11.5491 10.6398 11.546 10.6838 11.5535 10.7265L11.9165 12.8475C11.9247 12.8965 11.919 12.9468 11.9002 12.9927C11.8813 13.0386 11.85 13.0784 11.8098 13.1075C11.7696 13.1367 11.7221 13.154 11.6726 13.1576C11.6231 13.1613 11.5735 13.151 11.5295 13.128L9.62452 12.126C9.58632 12.106 9.54386 12.0956 9.50076 12.0956C9.45766 12.0956 9.41521 12.106 9.37702 12.126L7.47201 13.128C7.42805 13.1506 7.37869 13.1605 7.32942 13.1567C7.28015 13.1529 7.2329 13.1355 7.19294 13.1064C7.15298 13.0773 7.12187 13.0377 7.10308 12.992C7.08429 12.9463 7.07856 12.8963 7.08651 12.8475L7.44952 10.7265C7.45717 10.6839 7.45434 10.64 7.44128 10.5987C7.42821 10.5575 7.4053 10.52 7.37452 10.4895L5.82952 8.988C5.79413 8.95325 5.76911 8.90934 5.75728 8.86117C5.74545 8.81301 5.74727 8.7625 5.76253 8.71531C5.77779 8.66812 5.8059 8.62612 5.84369 8.59401C5.88149 8.56189 5.92748 8.54094 5.97652 8.5335L8.10652 8.2245C8.14944 8.21817 8.19018 8.20148 8.2252 8.17587C8.26022 8.15025 8.28848 8.11649 8.30751 8.0775L9.26002 6.15Z" fill="#F86D6D"/>
  <path d="M0.5 3C0.5 2.20435 0.81607 1.44129 1.37868 0.87868C1.94129 0.316071 2.70435 0 3.5 0L15.5 0C16.2956 0 17.0587 0.316071 17.6213 0.87868C18.1839 1.44129 18.5 2.20435 18.5 3V23.25C18.4999 23.3857 18.4631 23.5188 18.3933 23.6351C18.3236 23.7515 18.2236 23.8468 18.104 23.9108C17.9844 23.9748 17.8497 24.0052 17.7142 23.9988C17.5787 23.9923 17.4474 23.9492 17.3345 23.874L9.5 19.6515L1.6655 23.874C1.55256 23.9492 1.42135 23.9923 1.28584 23.9988C1.15033 24.0052 1.0156 23.9748 0.895999 23.9108C0.776399 23.8468 0.676406 23.7515 0.606671 23.6351C0.536936 23.5188 0.50007 23.3857 0.5 23.25V3ZM3.5 1.5C3.10218 1.5 2.72064 1.65804 2.43934 1.93934C2.15804 2.22064 2 2.60218 2 3V21.849L9.0845 18.126C9.20759 18.0441 9.35215 18.0004 9.5 18.0004C9.64785 18.0004 9.79241 18.0441 9.9155 18.126L17 21.849V3C17 2.60218 16.842 2.22064 16.5607 1.93934C16.2794 1.65804 15.8978 1.5 15.5 1.5H3.5Z" fill="#F86D6D"/>
</svg>
