<svg width="20" height="20" viewBox="0 0 20 20" fill="none" xmlns="http://www.w3.org/2000/svg">
<path d="M8.87664 4.59746L9.04098 4.57227C9.35859 4.52358 9.67947 4.49937 10.0008 4.49983M8.87664 4.59746L10.0001 4.99983M8.87664 4.59746L8.72365 4.62091L8.61674 4.6373V4.77162V5.03207C8.64453 5.04508 8.67303 5.05658 8.7021 5.0665C8.72993 5.07599 8.75828 5.08404 8.78705 5.09061C8.80243 5.09412 8.81789 5.09719 8.83341 5.09983H9.11674L9.11107 5.0665L9.03294 4.6069C8.98824 4.6145 8.94248 4.61322 8.89827 4.60313C8.89099 4.60147 8.88378 4.59958 8.87664 4.59746ZM10.0008 4.49983L10.0001 4.99983M10.0008 4.49983C10.0006 4.49983 10.0003 4.49983 10.0001 4.49983V4.99983M10.0008 4.49983C12.9064 4.50017 15.5422 6.5846 17.0444 9.78752L17.1442 10.0004L17.044 10.213C16.8135 10.702 16.5532 11.1764 16.2645 11.6335L16.2617 11.6378L16.2617 11.6378C16.2266 11.6922 16.208 11.7557 16.2084 11.8204M10.0001 4.99983C12.6501 4.99983 15.1417 6.90816 16.5917 9.99983C16.37 10.4703 16.1195 10.9267 15.8417 11.3665C15.7536 11.503 15.7072 11.6623 15.7084 11.8248M16.2084 11.8204C16.2084 11.8202 16.2084 11.82 16.2084 11.8197L15.7084 11.8248M16.2084 11.8204C16.2084 11.8207 16.2084 11.8209 16.2084 11.8211L15.7084 11.8248M16.2084 11.8204C16.2093 11.8929 16.2338 11.9632 16.2782 12.0205C16.3228 12.078 16.3849 12.1193 16.4552 12.1382L16.3254 12.6211M15.7084 11.8248C15.7103 12.0067 15.7716 12.183 15.883 12.3267C15.9944 12.4705 16.1497 12.5739 16.3254 12.6211M16.3254 12.6211L16.4552 12.1382C16.5254 12.1571 16.5999 12.1525 16.6673 12.1251C16.7347 12.0977 16.7913 12.049 16.8284 11.9864L16.8324 11.9796L16.8366 11.973C17.2101 11.3862 17.5345 10.7695 17.8066 10.1293L17.8074 10.1273C17.8253 10.0857 17.8345 10.0409 17.8345 9.99566C17.8345 9.95038 17.8253 9.90558 17.8074 9.86399L8.83341 3.43316C9.21848 3.36466 9.60896 3.33119 10.0001 3.33316C13.4167 3.33316 16.5834 5.75816 18.2667 9.6665C18.3114 9.77048 18.3345 9.88248 18.3345 9.99566C18.3345 10.1088 18.3114 10.2208 18.2667 10.3248C17.9839 10.9904 17.6467 11.6314 17.2584 12.2415C17.1656 12.3979 17.0242 12.5197 16.8557 12.5882C16.6873 12.6568 16.501 12.6683 16.3254 12.6211ZM8.11797 9.99983H7.83341C7.83341 10.0008 7.83341 10.0018 7.83341 10.0027C7.83417 10.5763 8.06236 11.1262 8.46801 11.5319C8.87367 11.9376 9.42362 12.1657 9.99723 12.1665C10.1913 12.1685 10.3847 12.1423 10.5712 12.0888L11.3872 11.8548L10.787 11.2546L8.74529 9.21294L8.14509 8.61273L8.12045 10.0023L8.11797 9.99983ZM8.11797 9.99983L8.03819 9.92005L8.39174 9.56649L8.11797 9.99983ZM4.83849 6.02672L5.20624 5.67273L4.84472 5.31237L2.26196 2.73794C2.26188 2.73787 2.26181 2.73779 2.26173 2.73771C2.19872 2.67459 2.16333 2.58903 2.16333 2.49983C2.16333 2.41052 2.19881 2.32487 2.26196 2.26172C2.29323 2.23045 2.33035 2.20564 2.37121 2.18872C2.41206 2.1718 2.45585 2.16309 2.50007 2.16309C2.54429 2.16309 2.58808 2.1718 2.62894 2.18872C2.66979 2.20564 2.70692 2.23045 2.73819 2.26172L17.7382 17.2617L17.7396 17.2632C17.7709 17.2942 17.7957 17.331 17.8126 17.3716C17.8295 17.4123 17.8382 17.4558 17.8382 17.4998C17.8382 17.5438 17.8295 17.5874 17.8126 17.628C17.7957 17.6686 17.7709 17.7055 17.7396 17.7365L17.7367 17.7394C17.7057 17.7706 17.6689 17.7954 17.6283 17.8124C17.5876 17.8293 17.5441 17.838 17.5001 17.838C17.4561 17.838 17.4125 17.8293 17.3719 17.8124C17.3313 17.7954 17.2944 17.7706 17.2634 17.7394L17.2625 17.7385L14.5625 15.0302L14.2735 14.7403L13.9323 14.9663C12.7651 15.7395 11.3983 16.1565 9.99841 16.1665C6.83605 16.1657 3.82051 13.915 2.19263 10.1354L2.19166 10.1332C2.17331 10.0911 2.16384 10.0457 2.16384 9.99983C2.16384 9.95394 2.17331 9.90855 2.19166 9.86649L2.19168 9.8665L2.19336 9.86256C2.80858 8.41932 3.70818 7.11476 4.83849 6.02672ZM10.0001 15.4998V15.4999L10.0058 15.4998C11.1459 15.4868 12.2627 15.1757 13.2454 14.5974L13.8057 14.2676L13.343 13.8107L12.018 12.5024L11.7531 12.2407L11.4265 12.4197C10.889 12.7142 10.2705 12.8264 9.66383 12.7397C9.05713 12.6529 8.49493 12.3717 8.06156 11.9383C7.6282 11.505 7.34703 10.9428 7.26025 10.3361C7.17347 9.72938 7.28574 9.1109 7.58023 8.57342L7.7593 8.24659L7.49727 7.9816L6.02227 6.48993L5.67824 6.14201L5.32295 6.47844C4.32849 7.42011 3.52642 8.54598 2.96129 9.79351L2.86646 10.0029L2.96359 10.2111C4.45771 13.4153 7.0942 15.4998 10.0001 15.4998Z" fill="black" stroke="#535261"/>
</svg>
