<svg width="20" height="20" viewBox="0 0 20 20" fill="none" xmlns="http://www.w3.org/2000/svg">
<path d="M17.8073 9.86462L17.8082 9.86683C17.8266 9.90888 17.836 9.95427 17.836 10.0002C17.836 10.0461 17.8266 10.0914 17.8082 10.1335L17.8073 10.1357C16.1791 13.916 13.1628 16.1668 9.99981 16.1668C6.83684 16.1668 3.82053 13.916 2.19236 10.1357L2.19237 10.1357L2.1914 10.1335C2.17305 10.0914 2.16357 10.046 2.16357 10.0002C2.16357 9.95428 2.17305 9.90888 2.1914 9.86683L2.19141 9.86683L2.19236 9.86462C3.82053 6.08437 6.83684 3.8335 9.99981 3.8335C13.1628 3.8335 16.1791 6.08437 17.8073 9.86462ZM2.96332 9.78885L2.86479 10.0002L2.96332 10.2115C4.45762 13.416 7.10258 15.5002 9.99981 15.5002C12.897 15.5002 15.542 13.416 17.0363 10.2115L17.1348 10.0002L17.0363 9.78885C15.542 6.58433 12.897 4.50016 9.99981 4.50016C7.10258 4.50016 4.45762 6.58433 2.96332 9.78885ZM8.4257 7.64433C8.89164 7.333 9.43943 7.16683 9.99981 7.16683C10.7513 7.16683 11.4719 7.46534 12.0033 7.99669C12.5346 8.52805 12.8331 9.24871 12.8331 10.0002C12.8331 10.5605 12.667 11.1083 12.3556 11.5743C12.0443 12.0402 11.6018 12.4034 11.0841 12.6178C10.5664 12.8323 9.99667 12.8884 9.44706 12.7791C8.89744 12.6697 8.39259 12.3999 7.99634 12.0036C7.60009 11.6074 7.33024 11.1025 7.22092 10.5529C7.11159 10.0033 7.1677 9.43362 7.38215 8.91589C7.5966 8.39817 7.95976 7.95566 8.4257 7.64433ZM8.79608 11.8017C9.15238 12.0398 9.57129 12.1668 9.99981 12.1668C10.5744 12.1668 11.1255 11.9386 11.5319 11.5322C11.9382 11.1259 12.1665 10.5748 12.1665 10.0002C12.1665 9.57164 12.0394 9.15273 11.8013 8.79643C11.5633 8.44012 11.2249 8.16241 10.829 7.99842C10.4331 7.83443 9.99741 7.79153 9.57712 7.87513C9.15682 7.95873 8.77076 8.16508 8.46775 8.4681C8.16473 8.77111 7.95838 9.15717 7.87478 9.57747C7.79118 9.99776 7.83408 10.4334 7.99807 10.8293C8.16206 11.2252 8.43977 11.5636 8.79608 11.8017Z" fill="#535261" stroke="#535261"/>
</svg>
